<svg version="1.1" id="Layer_1" xmlns="http://www.w3.org/2000/svg" xmlns:xlink="http://www.w3.org/1999/xlink" x="0px" y="0px"
	 width="100%" viewBox="0 0 498 498" enable-background="new 0 0 498 498" xml:space="preserve">
<path fill="#020202" opacity="0.000000" stroke="none" 
	d="
M275.000000,499.000000 
	C183.333359,499.000000 92.166710,499.000000 1.000049,499.000000 
	C1.000033,333.000061 1.000033,167.000122 1.000016,1.000138 
	C166.999893,1.000092 332.999786,1.000092 498.999756,1.000046 
	C498.999847,166.999863 498.999847,332.999725 498.999939,498.999786 
	C424.500000,499.000000 350.000000,499.000000 275.000000,499.000000 
M332.390198,287.563477 
	C343.572998,300.777344 349.041016,316.080627 349.277863,333.423126 
	C353.292358,321.914398 355.499908,310.201630 354.315582,297.082245 
	C352.492828,266.399231 324.927429,221.615234 307.830719,220.589417 
	C308.790314,223.729477 309.811859,227.072250 310.833374,230.415024 
	C310.395782,230.596146 309.958191,230.777267 309.520599,230.958405 
	C304.659821,225.419327 299.990936,219.695450 294.884583,214.392853 
	C289.722626,209.032486 283.255920,205.656662 275.481934,203.137497 
	C276.660126,206.731842 277.483765,209.595535 278.533264,212.373932 
	C280.782166,218.327667 280.829926,218.309616 278.756470,219.830963 
	C269.526001,210.166229 263.465424,196.862885 248.266190,193.723022 
	C247.475143,203.267014 251.368973,211.396942 255.259598,219.530975 
	C245.520081,210.154968 236.559677,200.486450 232.327713,186.587357 
	C226.408524,197.123184 227.026093,206.735367 232.660873,216.068069 
	C240.986450,229.857468 253.831329,238.297607 268.299561,245.674774 
	C272.135986,247.597366 275.972412,249.519943 280.304749,251.915741 
	C294.222107,260.182678 308.139496,268.449646 322.420959,277.283295 
	C324.257385,278.915985 326.093842,280.548676 328.085785,282.715790 
	C328.654877,283.170441 329.223938,283.625061 329.988312,284.686310 
	C330.717102,285.435699 331.445892,286.185059 332.390198,287.563477 
M375.141632,368.036743 
	C406.109314,332.617188 414.746216,292.204437 400.280548,247.631561 
	C387.368866,207.846970 360.482727,178.659332 325.272705,157.360352 
	C284.281189,132.564026 240.113480,120.777573 191.984711,129.967667 
	C176.362793,132.950638 161.348846,137.915482 148.667038,148.095932 
	C146.119980,150.140610 143.991653,152.706894 141.670258,155.032684 
	C142.000366,155.459457 142.330475,155.886215 142.660583,156.312988 
	C144.737335,155.429672 146.817673,154.554672 148.890305,153.661789 
	C176.793396,141.641312 205.670242,134.504944 236.253647,137.960922 
	C295.907135,144.701904 343.424927,172.150436 376.392975,222.774460 
	C404.328278,265.670532 400.352356,320.430939 367.891479,359.768646 
	C356.812592,373.194611 343.467041,383.679108 328.286041,393.052460 
	C322.286407,396.554565 316.286743,400.056671 310.287079,403.558777 
	C336.152832,399.800293 357.622040,388.144806 375.141632,368.036743 
M288.280975,428.186401 
	C268.611542,448.076569 244.531464,459.664856 217.395813,465.776215 
	C218.686783,466.449371 219.913986,466.812561 221.167404,467.006042 
	C247.527557,471.074646 273.654816,469.106201 299.525818,463.398346 
	C341.228333,454.197601 376.400391,433.458984 405.660065,402.466309 
	C441.581787,364.417084 462.453766,319.285828 466.739746,267.267029 
	C471.825684,205.539429 452.396301,151.168335 412.258118,104.536293 
	C340.965576,21.709438 219.635956,4.320764 128.802002,64.015587 
	C68.486046,103.654411 34.050415,159.893433 27.383245,231.929520 
	C23.017303,279.101776 35.025486,322.879120 58.984997,363.661285 
	C63.522285,371.384338 69.582726,374.653900 77.704971,375.792664 
	C77.802879,375.498474 78.026299,375.180176 77.975243,374.914673 
	C77.819260,374.103424 77.598076,373.298767 77.331261,372.515717 
	C71.462814,355.293488 70.188980,337.653809 73.030731,319.766876 
	C77.390656,292.324005 91.502991,271.221161 115.431816,257.078491 
	C121.236702,253.647644 127.950340,251.754333 135.276810,248.728317 
	C134.647583,250.715195 134.643829,251.116333 134.442535,251.295288 
	C133.574020,252.067474 132.654861,252.783707 131.741257,253.503952 
	C102.436691,276.606628 93.177505,307.234131 99.656044,342.862000 
	C108.636459,392.248718 154.444092,439.135529 216.948044,434.138184 
	C236.437744,432.579926 253.949814,426.445984 269.123230,414.003174 
	C269.916412,413.352753 270.418976,412.347961 271.790222,410.542572 
	C259.250580,412.345276 247.896484,415.155701 236.293137,413.784363 
	C254.511353,410.717041 271.964233,406.098053 286.725708,394.309967 
	C285.818634,394.078003 285.008820,394.147247 284.252045,394.385284 
	C260.698792,401.792816 236.735916,402.911987 212.680054,397.893250 
	C178.175156,390.694550 152.618713,371.903809 138.899307,338.633057 
	C138.314270,337.214294 138.281982,335.567657 137.992203,334.027161 
	C138.468445,333.858704 138.944672,333.690247 139.420898,333.521790 
	C140.339676,334.771606 141.281097,336.005493 142.173630,337.273773 
	C149.053757,347.050537 157.148666,355.572235 167.610916,361.578278 
	C176.668625,366.778046 185.119843,366.428772 190.766434,359.584778 
	C194.031189,355.627716 196.903015,350.553009 197.765656,345.600525 
	C198.950012,338.800995 198.061996,331.640503 198.061996,324.491821 
	C217.345352,322.582764 235.190033,327.931671 250.915451,340.492950 
	C257.285980,345.581726 263.358154,351.157227 270.195557,355.526154 
	C287.348053,366.486176 305.605560,368.110687 324.499908,360.155670 
	C332.420166,356.821045 336.475952,350.905334 335.932098,342.158539 
	C335.663788,337.843597 335.665039,333.468506 334.907715,329.234467 
	C330.321991,303.597473 318.011292,284.959015 290.793549,278.561829 
	C268.559387,273.335968 247.407211,265.123566 229.388031,250.339264 
	C229.101318,256.052643 229.585159,261.656158 228.414200,266.889404 
	C224.886414,282.655853 212.688202,290.303253 195.322571,288.626984 
	C183.706619,287.505676 172.027939,286.412048 160.825104,291.118988 
	C158.338257,292.163818 155.987442,293.532440 153.243637,294.918915 
	C151.441528,266.537842 159.623749,242.779099 180.949936,225.161392 
	C167.569748,214.339264 154.590775,203.841629 141.357712,193.138504 
	C120.336624,204.666931 103.471771,207.789581 90.080360,202.358704 
	C105.222198,201.730743 122.503258,193.805527 130.718643,184.417999 
	C128.816055,177.233459 126.107796,170.965393 125.674950,164.543945 
	C124.786819,151.368240 127.815140,139.619263 141.824432,133.838501 
	C142.912262,133.389618 143.609070,130.829376 143.655212,129.226486 
	C143.830566,123.136925 142.442810,116.738869 143.847382,110.996185 
	C148.594193,91.588562 162.239151,79.190071 179.553177,71.121223 
	C209.880280,56.987919 240.655502,59.372017 271.272858,70.728226 
	C272.463013,71.169670 273.433014,72.204643 274.505615,72.963051 
	C273.263641,73.933357 272.429352,74.107079 271.696259,73.908096 
	C250.440414,68.138649 228.985352,67.261536 207.494019,72.054451 
	C190.468094,75.851517 175.562393,83.658020 165.052689,98.114922 
	C159.137756,106.251366 157.088379,115.134476 162.263351,124.769699 
	C167.105713,123.090408 171.716858,121.257401 176.461044,119.883934 
	C207.824585,110.804001 239.306793,111.169250 270.544189,120.044502 
	C277.927368,122.142220 282.882904,121.431664 289.166840,116.825851 
	C308.400238,102.728714 329.449036,100.117973 351.246948,110.809509 
	C369.859802,119.938812 382.702393,135.048660 392.812073,152.732971 
	C393.074890,153.192703 392.931427,153.884689 392.981110,154.514816 
	C379.875427,153.437622 367.126678,152.977966 353.905426,157.537399 
	C355.547913,159.035324 356.318878,159.865173 357.210968,160.533325 
	C374.568268,173.533722 389.222076,189.139801 401.501068,206.953156 
	C424.482056,240.292114 436.973022,276.401733 429.901398,317.469635 
	C428.483368,325.704559 426.316925,333.742004 421.755127,341.122192 
	C419.367767,334.329681 417.146637,328.010193 414.501251,320.483582 
	C413.697937,322.645813 413.301636,323.489319 413.067688,324.375671 
	C409.158112,339.186340 402.336487,352.567474 393.219147,364.816956 
	C370.126099,395.843475 338.994812,413.192444 301.088257,419.179047 
	C298.564636,419.577545 296.288055,421.540405 293.293365,423.054352 
	C291.831055,424.687805 290.368744,426.321259 288.280975,428.186401 
M212.268448,382.276764 
	C214.922974,383.224854 217.518570,384.412720 220.241638,385.081909 
	C237.378601,389.293396 254.593079,388.761871 271.730103,385.239166 
	C278.977478,383.749359 286.060974,381.462250 293.218964,379.537537 
	C266.946014,379.121277 250.430878,361.365173 231.750305,346.438965 
	C232.820557,356.905579 237.760986,364.785675 243.580887,372.357605 
	C230.875229,366.974121 223.331833,356.509033 215.532700,344.650726 
	C213.859879,357.817230 215.249512,368.706635 223.602371,378.324768 
	C216.462860,376.989899 211.153290,372.444000 205.759079,368.147827 
	C201.523743,373.844696 201.769531,375.778107 207.212128,379.613495 
	C208.556931,380.561218 210.098892,381.229156 212.268448,382.276764 
M219.073105,221.240997 
	C218.384628,220.943222 217.347183,220.191620 217.058411,220.413651 
	C208.531830,226.970184 200.291672,233.919617 191.554184,240.175598 
	C183.297684,246.087158 177.279892,253.514618 172.673660,263.404602 
	C181.205994,257.025848 189.034668,251.173126 196.863358,245.320404 
	C197.024780,245.624893 197.186203,245.929382 197.347626,246.233871 
	C192.441055,254.573257 187.534500,262.912628 182.627930,271.252014 
	C183.173538,271.661133 183.719131,272.070251 184.264740,272.479370 
	C189.662216,267.720764 195.059677,262.962158 201.696457,257.110962 
	C200.206940,262.605835 199.098450,266.695038 197.871124,271.222717 
	C204.729248,270.879395 205.073257,264.320648 208.838654,260.977753 
	C209.100494,264.069824 209.325989,266.732605 209.672287,270.821838 
	C217.007462,254.272751 217.719833,238.117401 219.073105,221.240997 
M330.000580,143.564163 
	C340.452942,142.534073 350.905334,141.503983 360.402832,140.567993 
	C349.114349,131.090591 335.376099,126.650436 319.283478,132.126907 
	C326.224457,126.034950 334.413544,123.798935 344.116791,122.896835 
	C327.976501,116.101830 308.060791,119.612022 301.358429,129.339081 
	C310.644501,133.923035 319.999451,138.541000 330.000580,143.564163 
M169.919937,165.088455 
	C168.724823,165.626266 167.416763,165.999893 166.354462,166.730774 
	C162.097458,169.659531 161.084595,174.648575 163.657944,179.424042 
	C165.969086,183.712891 171.616638,185.552551 176.047989,183.460007 
	C180.330795,181.437607 182.392899,176.439148 180.650513,171.687622 
	C178.987396,167.152344 175.543076,164.976791 169.919937,165.088455 
z"/>
<path fill="#FBFBFB" opacity="1.000000" stroke="none" 
	d="
M293.896576,422.775696 
	C296.288055,421.540405 298.564636,419.577545 301.088257,419.179047 
	C338.994812,413.192444 370.126099,395.843475 393.219147,364.816956 
	C402.336487,352.567474 409.158112,339.186340 413.067688,324.375671 
	C413.301636,323.489319 413.697937,322.645813 414.501251,320.483582 
	C417.146637,328.010193 419.367767,334.329681 421.755127,341.122192 
	C426.316925,333.742004 428.483368,325.704559 429.901398,317.469635 
	C436.973022,276.401733 424.482056,240.292114 401.501068,206.953156 
	C389.222076,189.139801 374.568268,173.533722 357.210968,160.533325 
	C356.318878,159.865173 355.547913,159.035324 353.905426,157.537399 
	C367.126678,152.977966 379.875427,153.437622 392.981110,154.514816 
	C392.931427,153.884689 393.074890,153.192703 392.812073,152.732971 
	C382.702393,135.048660 369.859802,119.938812 351.246948,110.809509 
	C329.449036,100.117973 308.400238,102.728714 289.166840,116.825851 
	C282.882904,121.431664 277.927368,122.142220 270.544189,120.044502 
	C239.306793,111.169250 207.824585,110.804001 176.461044,119.883934 
	C171.716858,121.257401 167.105713,123.090408 162.263351,124.769699 
	C157.088379,115.134476 159.137756,106.251366 165.052689,98.114922 
	C175.562393,83.658020 190.468094,75.851517 207.494019,72.054451 
	C228.985352,67.261536 250.440414,68.138649 271.696259,73.908096 
	C272.429352,74.107079 273.263641,73.933357 274.505615,72.963051 
	C273.433014,72.204643 272.463013,71.169670 271.272858,70.728226 
	C240.655502,59.372017 209.880280,56.987919 179.553177,71.121223 
	C162.239151,79.190071 148.594193,91.588562 143.847382,110.996185 
	C142.442810,116.738869 143.830566,123.136925 143.655212,129.226486 
	C143.609070,130.829376 142.912262,133.389618 141.824432,133.838501 
	C127.815140,139.619263 124.786819,151.368240 125.674950,164.543945 
	C126.107796,170.965393 128.816055,177.233459 130.718643,184.417999 
	C122.503258,193.805527 105.222198,201.730743 90.080360,202.358704 
	C103.471771,207.789581 120.336624,204.666931 141.357712,193.138504 
	C154.590775,203.841629 167.569748,214.339264 180.949936,225.161392 
	C159.623749,242.779099 151.441528,266.537842 153.243637,294.918915 
	C155.987442,293.532440 158.338257,292.163818 160.825104,291.118988 
	C172.027939,286.412048 183.706619,287.505676 195.322571,288.626984 
	C212.688202,290.303253 224.886414,282.655853 228.414200,266.889404 
	C229.585159,261.656158 229.101318,256.052643 229.388031,250.339264 
	C247.407211,265.123566 268.559387,273.335968 290.793549,278.561829 
	C318.011292,284.959015 330.321991,303.597473 334.907715,329.234467 
	C335.665039,333.468506 335.663788,337.843597 335.932098,342.158539 
	C336.475952,350.905334 332.420166,356.821045 324.499908,360.155670 
	C305.605560,368.110687 287.348053,366.486176 270.195557,355.526154 
	C263.358154,351.157227 257.285980,345.581726 250.915451,340.492950 
	C235.190033,327.931671 217.345352,322.582764 198.061996,324.491821 
	C198.061996,331.640503 198.950012,338.800995 197.765656,345.600525 
	C196.903015,350.553009 194.031189,355.627716 190.766434,359.584778 
	C185.119843,366.428772 176.668625,366.778046 167.610916,361.578278 
	C157.148666,355.572235 149.053757,347.050537 142.173630,337.273773 
	C141.281097,336.005493 140.339676,334.771606 139.420898,333.521790 
	C138.944672,333.690247 138.468445,333.858704 137.992203,334.027161 
	C138.281982,335.567657 138.314270,337.214294 138.899307,338.633057 
	C152.618713,371.903809 178.175156,390.694550 212.680054,397.893250 
	C236.735916,402.911987 260.698792,401.792816 284.252045,394.385284 
	C285.008820,394.147247 285.818634,394.078003 286.725708,394.309967 
	C271.964233,406.098053 254.511353,410.717041 236.293137,413.784363 
	C247.896484,415.155701 259.250580,412.345276 271.790222,410.542572 
	C270.418976,412.347961 269.916412,413.352753 269.123230,414.003174 
	C253.949814,426.445984 236.437744,432.579926 216.948044,434.138184 
	C154.444092,439.135529 108.636459,392.248718 99.656044,342.862000 
	C93.177505,307.234131 102.436691,276.606628 131.741257,253.503952 
	C132.654861,252.783707 133.574020,252.067474 134.442535,251.295288 
	C134.643829,251.116333 134.647583,250.715195 135.276810,248.728317 
	C127.950340,251.754333 121.236702,253.647644 115.431816,257.078491 
	C91.502991,271.221161 77.390656,292.324005 73.030731,319.766876 
	C70.188980,337.653809 71.462814,355.293488 77.331261,372.515717 
	C77.598076,373.298767 77.819260,374.103424 77.975243,374.914673 
	C78.026299,375.180176 77.802879,375.498474 77.702927,375.794098 
	C69.582726,374.653900 63.522285,371.384338 58.984997,363.661285 
	C35.025486,322.879120 23.017303,279.101776 27.383245,231.929520 
	C34.050415,159.893433 68.486046,103.654411 128.802002,64.015587 
	C219.635956,4.320764 340.965576,21.709438 412.258118,104.536293 
	C452.396301,151.168335 471.825684,205.539429 466.739746,267.267029 
	C462.453766,319.285828 441.581787,364.417084 405.660065,402.466309 
	C376.400391,433.458984 341.228333,454.197601 299.525818,463.398346 
	C273.654816,469.106201 247.527557,471.074646 221.167404,467.006042 
	C219.913986,466.812561 218.686783,466.449371 217.395813,465.776215 
	C244.531464,459.664856 268.611542,448.076569 288.901031,428.219910 
	C291.224640,428.302551 292.928162,428.351715 294.631714,428.400848 
	C294.386688,426.525787 294.141632,424.650726 293.896576,422.775696 
M70.415123,226.052673 
	C61.597900,216.517242 58.627621,204.986252 61.380043,192.726334 
	C65.845940,172.834274 80.479294,163.163101 99.160049,158.210251 
	C83.340561,156.560699 70.749367,162.274490 61.023186,174.576477 
	C50.808586,187.496262 49.335804,206.991592 58.063942,220.999329 
	C65.232903,232.504745 75.161659,240.050110 89.902908,240.175430 
	C83.267365,235.416336 77.094688,230.989227 70.415123,226.052673 
z"/>
<path fill="#F6F4F5" opacity="1.000000" stroke="none" 
	d="
M328.986084,392.973358 
	C343.467041,383.679108 356.812592,373.194611 367.891479,359.768646 
	C400.352356,320.430939 404.328278,265.670532 376.392975,222.774460 
	C343.424927,172.150436 295.907135,144.701904 236.253647,137.960922 
	C205.670242,134.504944 176.793396,141.641312 148.890305,153.661789 
	C146.817673,154.554672 144.737335,155.429672 142.660583,156.312988 
	C142.330475,155.886215 142.000366,155.459457 141.670258,155.032684 
	C143.991653,152.706894 146.119980,150.140610 148.667038,148.095932 
	C161.348846,137.915482 176.362793,132.950638 191.984711,129.967667 
	C240.113480,120.777573 284.281189,132.564026 325.272705,157.360352 
	C360.482727,178.659332 387.368866,207.846970 400.280548,247.631561 
	C414.746216,292.204437 406.109314,332.617188 374.459259,368.103638 
	C370.772949,370.283081 367.908112,372.636658 364.739899,374.464447 
	C353.724792,380.819336 342.615814,387.012268 331.493835,393.178955 
	C330.883545,393.517365 329.832153,393.060211 328.986084,392.973358 
z"/>
<path fill="#F9F8F8" opacity="1.000000" stroke="none" 
	d="
M267.982727,245.073364 
	C253.831329,238.297607 240.986450,229.857468 232.660873,216.068069 
	C227.026093,206.735367 226.408524,197.123184 232.327713,186.587357 
	C236.559677,200.486450 245.520081,210.154968 255.259598,219.530975 
	C251.368973,211.396942 247.475143,203.267014 248.266190,193.723022 
	C263.465424,196.862885 269.526001,210.166229 278.756470,219.830963 
	C280.829926,218.309616 280.782166,218.327667 278.533264,212.373932 
	C277.483765,209.595535 276.660126,206.731842 275.481934,203.137497 
	C283.255920,205.656662 289.722626,209.032486 294.884583,214.392853 
	C299.990936,219.695450 304.659821,225.419327 309.520599,230.958405 
	C309.958191,230.777267 310.395782,230.596146 310.833374,230.415024 
	C309.811859,227.072250 308.790314,223.729477 307.830719,220.589417 
	C324.927429,221.615234 352.492828,266.399231 353.924774,297.377197 
	C350.075073,293.427643 346.616180,289.183136 343.075043,284.606873 
	C341.680725,283.162201 340.368591,282.049316 339.027588,280.966858 
	C338.998688,280.997284 339.062927,280.944397 339.019531,280.627014 
	C338.336090,279.852020 337.695984,279.394440 337.029724,278.969421 
	C337.003601,279.001953 337.063721,278.942566 337.023285,278.605103 
	C335.674622,277.128143 334.366394,275.988586 332.985321,274.527374 
	C330.941254,272.804474 328.970001,271.403290 326.840698,269.709778 
	C325.154816,268.587738 323.627014,267.758026 321.937592,266.653870 
	C320.864380,265.915100 319.952789,265.450806 318.861511,264.746552 
	C318.122101,264.327698 317.562439,264.148804 316.781189,263.704987 
	C313.070312,261.904633 309.580994,260.369171 305.993225,258.503815 
	C303.266602,257.104584 300.638428,256.035248 297.799622,254.692490 
	C295.392303,253.615051 293.195557,252.811005 290.675171,251.984482 
	C289.919586,251.952301 289.487640,251.942612 289.045105,251.943542 
	C289.034576,251.954163 289.044128,251.946808 288.883942,251.692719 
	C288.158508,251.272858 287.593262,251.107071 287.011993,250.968536 
	C286.995972,250.995758 287.040680,250.952148 286.815796,250.675995 
	C281.534943,248.521042 276.504211,246.568268 271.401245,244.827179 
	C270.405640,244.487488 269.129486,244.970047 267.982727,245.073364 
z"/>
<path fill="#F5F3F5" opacity="1.000000" stroke="none" 
	d="
M211.909332,382.151215 
	C210.098892,381.229156 208.556931,380.561218 207.212128,379.613495 
	C201.769531,375.778107 201.523743,373.844696 205.759079,368.147827 
	C211.153290,372.444000 216.462860,376.989899 223.602371,378.324768 
	C215.249512,368.706635 213.859879,357.817230 215.532700,344.650726 
	C223.331833,356.509033 230.875229,366.974121 243.580887,372.357605 
	C237.760986,364.785675 232.820557,356.905579 231.750305,346.438965 
	C250.430878,361.365173 266.946014,379.121277 293.218964,379.537537 
	C286.060974,381.462250 278.977478,383.749359 271.730103,385.239166 
	C254.593079,388.761871 237.378601,389.293396 220.241638,385.081909 
	C217.518570,384.412720 214.922974,383.224854 211.909332,382.151215 
z"/>
<path fill="#F2F0F1" opacity="1.000000" stroke="none" 
	d="
M219.051956,221.657135 
	C217.719833,238.117401 217.007462,254.272751 209.672287,270.821838 
	C209.325989,266.732605 209.100494,264.069824 208.838654,260.977753 
	C205.073257,264.320648 204.729248,270.879395 197.871124,271.222717 
	C199.098450,266.695038 200.206940,262.605835 201.696457,257.110962 
	C195.059677,262.962158 189.662216,267.720764 184.264740,272.479370 
	C183.719131,272.070251 183.173538,271.661133 182.627930,271.252014 
	C187.534500,262.912628 192.441055,254.573257 197.347626,246.233871 
	C197.186203,245.929382 197.024780,245.624893 196.863358,245.320404 
	C189.034668,251.173126 181.205994,257.025848 172.673660,263.404602 
	C177.279892,253.514618 183.297684,246.087158 191.554184,240.175598 
	C200.291672,233.919617 208.531830,226.970184 217.058411,220.413651 
	C217.347183,220.191620 218.384628,220.943222 219.051956,221.657135 
M198.786133,245.608292 
	C198.591614,245.534927 198.397095,245.461563 198.202576,245.388184 
	C198.261032,245.589081 198.319489,245.789993 198.786133,245.608292 
z"/>
<path fill="#D3D2D3" opacity="1.000000" stroke="none" 
	d="
M319.041199,264.986481 
	C319.952789,265.450806 320.864380,265.915100 321.678711,266.830078 
	C321.387665,267.853851 321.193817,268.426910 320.865570,269.053314 
	C320.820770,269.071106 320.910370,269.035553 321.354980,269.003967 
	C323.472870,269.339294 325.235840,269.670715 326.998779,270.002136 
	C328.970001,271.403290 330.941254,272.804474 332.995392,274.888733 
	C334.406769,276.695374 335.735229,277.818970 337.063721,278.942566 
	C337.063721,278.942566 337.003601,279.001953 337.053467,279.300415 
	C337.756500,280.047394 338.409729,280.495880 339.062927,280.944397 
	C339.062927,280.944397 338.998688,280.997284 339.042603,281.320007 
	C340.443420,282.741364 341.800354,283.839996 343.157257,284.938660 
	C346.616180,289.183136 350.075073,293.427643 353.837341,297.827881 
	C355.499908,310.201630 353.292358,321.914398 349.277863,333.423126 
	C349.041016,316.080627 343.572998,300.777344 332.514160,287.004761 
	C331.689758,285.657227 330.741394,284.868469 329.793030,284.079712 
	C329.223938,283.625061 328.654877,283.170441 328.034424,282.034790 
	C328.317963,278.546814 328.652893,275.739838 329.026642,272.607697 
	C325.872925,272.987000 323.743866,273.243073 321.651764,273.494690 
	C321.809174,274.746735 321.933014,275.731659 322.056854,276.716583 
	C308.139496,268.449646 294.222107,260.182678 280.253387,251.363220 
	C282.481567,250.857864 284.761139,250.905014 287.040680,250.952148 
	C287.040680,250.952148 286.995972,250.995758 287.170532,251.227448 
	C287.911438,251.621689 288.477783,251.784256 289.044128,251.946808 
	C289.044128,251.946808 289.034576,251.954163 289.063843,252.246887 
	C289.487091,252.875671 289.881042,253.211746 290.274963,253.547821 
	C290.516266,253.034225 290.757538,252.520615 290.998810,252.006989 
	C293.195557,252.811005 295.392303,253.615051 297.833435,255.056458 
	C300.459686,260.291138 303.505371,261.484467 306.091644,258.833710 
	C309.580994,260.369171 313.070312,261.904633 316.949951,263.956848 
	C317.907227,264.644592 318.474213,264.815521 319.041199,264.986481 
M337.418762,283.484100 
	C337.418762,283.484100 337.522858,283.423492 337.418762,283.484100 
z"/>
<path fill="#F4F3F3" opacity="1.000000" stroke="none" 
	d="
M329.677490,143.361572 
	C319.999451,138.541000 310.644501,133.923035 301.358429,129.339081 
	C308.060791,119.612022 327.976501,116.101830 344.116791,122.896835 
	C334.413544,123.798935 326.224457,126.034950 319.283478,132.126907 
	C335.376099,126.650436 349.114349,131.090591 360.402832,140.567993 
	C350.905334,141.503983 340.452942,142.534073 329.677490,143.361572 
z"/>
<path fill="#CFCFCF" opacity="1.000000" stroke="none" 
	d="
M328.636047,393.012909 
	C329.832153,393.060211 330.883545,393.517365 331.493835,393.178955 
	C342.615814,387.012268 353.724792,380.819336 364.739899,374.464447 
	C367.908112,372.636658 370.772949,370.283081 374.173340,368.252747 
	C357.622040,388.144806 336.152832,399.800293 310.287079,403.558777 
	C316.286743,400.056671 322.286407,396.554565 328.636047,393.012909 
z"/>
<path fill="#F3F2F3" opacity="1.000000" stroke="none" 
	d="
M170.316650,165.046326 
	C175.543076,164.976791 178.987396,167.152344 180.650513,171.687622 
	C182.392899,176.439148 180.330795,181.437607 176.047989,183.460007 
	C171.616638,185.552551 165.969086,183.712891 163.657944,179.424042 
	C161.084595,174.648575 162.097458,169.659531 166.354462,166.730774 
	C167.416763,165.999893 168.724823,165.626266 170.316650,165.046326 
z"/>
<path fill="#D1D1D1" opacity="1.000000" stroke="none" 
	d="
M286.815796,250.675995 
	C284.761139,250.905014 282.481567,250.857864 280.005432,251.126617 
	C275.972412,249.519943 272.135986,247.597366 268.141144,245.374054 
	C269.129486,244.970047 270.405640,244.487488 271.401245,244.827179 
	C276.504211,246.568268 281.534943,248.521042 286.815796,250.675995 
z"/>
<path fill="#D1D1D1" opacity="1.000000" stroke="none" 
	d="
M322.238892,276.999939 
	C321.933014,275.731659 321.809174,274.746735 321.651764,273.494690 
	C323.743866,273.243073 325.872925,272.987000 329.026642,272.607697 
	C328.652893,275.739838 328.317963,278.546814 327.956665,281.767578 
	C326.093842,280.548676 324.257385,278.915985 322.238892,276.999939 
z"/>
<path fill="#EEEEF0" opacity="1.000000" stroke="none" 
	d="
M293.594971,422.915009 
	C294.141632,424.650726 294.386688,426.525787 294.631714,428.400848 
	C292.928162,428.351715 291.224640,428.302551 289.213745,428.104065 
	C290.368744,426.321259 291.831055,424.687805 293.594971,422.915009 
z"/>
<path fill="#D1D1D1" opacity="1.000000" stroke="none" 
	d="
M329.890686,284.382996 
	C330.741394,284.868469 331.689758,285.657227 332.406403,286.690216 
	C331.445892,286.185059 330.717102,285.435699 329.890686,284.382996 
z"/>
<path fill="#0E0E0E" opacity="0.000000" stroke="none" 
	d="
M70.668564,226.307388 
	C77.094688,230.989227 83.267365,235.416336 89.902908,240.175430 
	C75.161659,240.050110 65.232903,232.504745 58.063942,220.999329 
	C49.335804,206.991592 50.808586,187.496262 61.023186,174.576477 
	C70.749367,162.274490 83.340561,156.560699 99.160049,158.210251 
	C80.479294,163.163101 65.845940,172.834274 61.380043,192.726334 
	C58.627621,204.986252 61.597900,216.517242 70.668564,226.307388 
z"/>
<path fill="#D1D1D1" opacity="1.000000" stroke="none" 
	d="
M305.993225,258.503815 
	C303.505371,261.484467 300.459686,260.291138 298.044067,255.329865 
	C300.638428,256.035248 303.266602,257.104584 305.993225,258.503815 
z"/>
<path fill="#D1D1D1" opacity="1.000000" stroke="none" 
	d="
M326.840698,269.709778 
	C325.235840,269.670715 323.472870,269.339294 321.354980,269.003967 
	C321.193817,268.426910 321.387665,267.853851 321.840332,267.104553 
	C323.627014,267.758026 325.154816,268.587738 326.840698,269.709778 
z"/>
<path fill="#D1D1D1" opacity="1.000000" stroke="none" 
	d="
M337.023285,278.605103 
	C335.735229,277.818970 334.406769,276.695374 333.068237,275.210419 
	C334.366394,275.988586 335.674622,277.128143 337.023285,278.605103 
z"/>
<path fill="#D1D1D1" opacity="1.000000" stroke="none" 
	d="
M343.075043,284.606873 
	C341.800354,283.839996 340.443420,282.741364 339.071503,281.289551 
	C340.368591,282.049316 341.680725,283.162201 343.075043,284.606873 
z"/>
<path fill="#D1D1D1" opacity="1.000000" stroke="none" 
	d="
M339.019531,280.627014 
	C338.409729,280.495880 337.756500,280.047394 337.079590,279.267883 
	C337.695984,279.394440 338.336090,279.852020 339.019531,280.627014 
z"/>
<path fill="#D1D1D1" opacity="1.000000" stroke="none" 
	d="
M290.675171,251.984497 
	C290.757538,252.520615 290.516266,253.034225 290.274963,253.547821 
	C289.881042,253.211746 289.487091,252.875671 289.074402,252.236267 
	C289.487640,251.942612 289.919586,251.952301 290.675171,251.984497 
z"/>
<path fill="#D1D1D1" opacity="1.000000" stroke="none" 
	d="
M318.861511,264.746552 
	C318.474213,264.815521 317.907227,264.644592 317.171509,264.221741 
	C317.562439,264.148804 318.122101,264.327698 318.861511,264.746552 
z"/>
<path fill="#D1D1D1" opacity="1.000000" stroke="none" 
	d="
M288.883942,251.692719 
	C288.477783,251.784256 287.911438,251.621689 287.186554,251.200226 
	C287.593262,251.107071 288.158508,251.272858 288.883942,251.692719 
z"/>
<path fill="#020202" opacity="0.000000" stroke="none" 
	d="
M198.582047,245.799591 
	C198.319489,245.789993 198.261032,245.589081 198.202576,245.388184 
	C198.397095,245.461563 198.591614,245.534927 198.582047,245.799591 
z"/>
<path fill="#D1D1D1" opacity="1.000000" stroke="none" 
	d="
M320.865570,269.053314 
	C320.910370,269.035553 320.820770,269.071106 320.865570,269.053314 
z"/>
<path fill="#D1D1D1" opacity="1.000000" stroke="none" 
	d="
M337.470825,283.453796 
	C337.522858,283.423492 337.418762,283.484100 337.470825,283.453796 
z"/>
</svg>